<?xml version="1.0" encoding="utf-8"?>
<!-- Generator: Adobe Illustrator 16.0.0, SVG Export Plug-In . SVG Version: 6.00 Build 0)  -->
<!DOCTYPE svg PUBLIC "-//W3C//DTD SVG 1.1//EN" "http://www.w3.org/Graphics/SVG/1.1/DTD/svg11.dtd">
<svg version="1.1" id="Layer_1" xmlns="http://www.w3.org/2000/svg" xmlns:xlink="http://www.w3.org/1999/xlink" x="0px" y="0px"
	 width="42px" height="42px" viewBox="20 20 42 42" enable-background="new 20 20 42 42" xml:space="preserve">
<linearGradient id="SVGID_1_" gradientUnits="userSpaceOnUse" x1="-271.0708" y1="237.4248" x2="-234.9319" y2="254.5728" gradientTransform="matrix(1 0 0 -1 294 287)">
	<stop  offset="0.206" style="stop-color:#FFFFFF;stop-opacity:0"/>
	<stop  offset="0.8743" style="stop-color:#2FDFD4"/>
</linearGradient>
<path fill="url(#SVGID_1_)" d="M49.573,22.931c-9.979-4.735-21.907-0.483-26.643,9.495c-4.735,9.979-0.484,21.908,9.495,26.644
	s21.908,0.484,26.644-9.495S59.553,27.667,49.573,22.931z M41,56c-8.284,0-15-6.716-15-15s6.716-15,15-15s15,6.716,15,15
	S49.284,56,41,56z"/>
<path fill="#2FDFD4" d="M56,41c0,8.284-6.716,15-15,15s-15-6.716-15-15h-5c0,11.046,8.954,20,20,20s20-8.954,20-20H56z"/>
<linearGradient id="SVGID_2_" gradientUnits="userSpaceOnUse" x1="-279.7554" y1="246" x2="-279.7554" y2="275" gradientTransform="matrix(1 0 0 -1 294 287)">
	<stop  offset="0.2547" style="stop-color:#FFFFFF"/>
	<stop  offset="1" style="stop-color:#FFFFFF;stop-opacity:0"/>
</linearGradient>
<path display="none" fill="url(#SVGID_2_)" d="M28.49,13.734L0,12v29h11C11,28.898,18.17,18.477,28.49,13.734z"/>
</svg>
